<svg id="visual" viewBox="0 0 900 600" width="900" height="600" xmlns="http://www.w3.org/2000/svg" xmlns:xlink="http://www.w3.org/1999/xlink" version="1.1"><rect x="0" y="0" width="900" height="600" fill="#FFFFFE"></rect><path d="M0 411L21.5 404.3C43 397.7 86 384.3 128.8 383.8C171.7 383.3 214.3 395.7 257.2 406.2C300 416.7 343 425.3 385.8 422.8C428.7 420.3 471.3 406.7 514.2 403.3C557 400 600 407 642.8 405.5C685.7 404 728.3 394 771.2 386C814 378 857 372 878.5 369L900 366L900 601L878.5 601C857 601 814 601 771.2 601C728.3 601 685.7 601 642.8 601C600 601 557 601 514.2 601C471.3 601 428.7 601 385.8 601C343 601 300 601 257.2 601C214.3 601 171.7 601 128.8 601C86 601 43 601 21.5 601L0 601Z" fill="#d1d1e9"></path><path d="M0 430L21.5 426.7C43 423.3 86 416.7 128.8 410.8C171.7 405 214.3 400 257.2 402.7C300 405.3 343 415.7 385.8 420.3C428.7 425 471.3 424 514.2 421.2C557 418.3 600 413.7 642.8 417C685.7 420.3 728.3 431.7 771.2 432.7C814 433.7 857 424.3 878.5 419.7L900 415L900 601L878.5 601C857 601 814 601 771.2 601C728.3 601 685.7 601 642.8 601C600 601 557 601 514.2 601C471.3 601 428.7 601 385.8 601C343 601 300 601 257.2 601C214.3 601 171.7 601 128.8 601C86 601 43 601 21.5 601L0 601Z" fill="#b3b0ee"></path><path d="M0 482L21.5 478.2C43 474.3 86 466.7 128.8 467.7C171.7 468.7 214.3 478.3 257.2 474.8C300 471.3 343 454.7 385.8 457C428.7 459.3 471.3 480.7 514.2 481.2C557 481.7 600 461.3 642.8 461.8C685.7 462.3 728.3 483.7 771.2 495.2C814 506.7 857 508.3 878.5 509.2L900 510L900 601L878.5 601C857 601 814 601 771.2 601C728.3 601 685.7 601 642.8 601C600 601 557 601 514.2 601C471.3 601 428.7 601 385.8 601C343 601 300 601 257.2 601C214.3 601 171.7 601 128.8 601C86 601 43 601 21.5 601L0 601Z" fill="#968ff0"></path><path d="M0 526L21.5 526.3C43 526.7 86 527.3 128.8 527.2C171.7 527 214.3 526 257.2 524C300 522 343 519 385.8 520.3C428.7 521.7 471.3 527.3 514.2 531.2C557 535 600 537 642.8 537.2C685.7 537.3 728.3 535.7 771.2 535C814 534.3 857 534.7 878.5 534.8L900 535L900 601L878.5 601C857 601 814 601 771.2 601C728.3 601 685.7 601 642.8 601C600 601 557 601 514.2 601C471.3 601 428.7 601 385.8 601C343 601 300 601 257.2 601C214.3 601 171.7 601 128.8 601C86 601 43 601 21.5 601L0 601Z" fill="#7b6cef"></path><path d="M0 566L21.5 562C43 558 86 550 128.8 549C171.7 548 214.3 554 257.2 558.5C300 563 343 566 385.8 561C428.7 556 471.3 543 514.2 538.5C557 534 600 538 642.8 537.7C685.7 537.3 728.3 532.7 771.2 535.2C814 537.7 857 547.3 878.5 552.2L900 557L900 601L878.5 601C857 601 814 601 771.2 601C728.3 601 685.7 601 642.8 601C600 601 557 601 514.2 601C471.3 601 428.7 601 385.8 601C343 601 300 601 257.2 601C214.3 601 171.7 601 128.8 601C86 601 43 601 21.5 601L0 601Z" fill="#6246ea"></path></svg>